<?xml version="1.0" standalone="no"?>
<!DOCTYPE svg PUBLIC "-//W3C//DTD SVG 20010904//EN"
 "http://www.w3.org/TR/2001/REC-SVG-20010904/DTD/svg10.dtd">
<svg version="1.0" xmlns="http://www.w3.org/2000/svg"
 width="100.000000pt" height="100.000000pt" viewBox="0 0 100.000000 100.000000"
 preserveAspectRatio="xMidYMid meet">
<metadata>
Created by potrace 1.14, written by Peter Selinger 2001-2017
</metadata>
<g transform="translate(0.000000,100.000000) scale(0.100000,-0.100000)"
fill="#000000" stroke="none">
<path d="M112 894 c-15 -11 -17 -48 -18 -389 0 -286 2 -380 12 -393 11 -15 41
-17 301 -18 158 -1 299 3 313 8 23 9 178 158 181 175 1 5 3 140 4 301 1 220
-2 297 -11 310 -11 15 -47 17 -389 18 -283 0 -380 -3 -393 -12z"/>
</g>
</svg>
